<svg width="240" height="240" viewBox="0 0 240 240" fill="none" xmlns="http://www.w3.org/2000/svg">
<rect width="240" height="240" fill="black"/>
<path d="M28 115.261V109.554H33.7326V115.261H28ZM56.4958 115.261V109.554H62.2283V115.261H56.4958ZM28 108.169V102.462H33.7326V108.169H28ZM56.4958 108.169V102.462H62.2283V108.169H56.4958ZM28 101.077V95.3694H33.7326V101.077H28ZM56.4958 101.077V95.3694H62.2283V101.077H56.4958ZM28 93.9842V88.277H33.7326V93.9842H28ZM35.1239 93.9842V88.277H40.8565V93.9842H35.1239ZM42.2479 93.9842V88.277H47.9804V93.9842H42.2479ZM49.3718 93.9842V88.277H55.1044V93.9842H49.3718ZM56.4958 93.9842V88.277H62.2283V93.9842H56.4958ZM28 86.8918V81.1847H33.7326V86.8918H28ZM56.4958 86.8918V81.1847H62.2283V86.8918H56.4958ZM35.1239 79.7995V74.0923H40.8565V79.7995H35.1239ZM49.3718 79.7995V74.0923H55.1044V79.7995H49.3718ZM42.2479 72.7071V67H47.9804V72.7071H42.2479Z" fill="white"/>
<path d="M78.2572 115.261V109.554H83.9898V115.261H78.2572ZM106.753 115.261V109.554H112.486V115.261H106.753ZM78.2572 108.169V102.462H83.9898V108.169H78.2572ZM106.753 108.169V102.462H112.486V108.169H106.753ZM78.2572 101.077V95.3694H83.9898V101.077H78.2572ZM106.753 101.077V95.3694H112.486V101.077H106.753ZM78.2572 93.9842V88.277H83.9898V93.9842H78.2572ZM85.3812 93.9842V88.277H91.1137V93.9842H85.3812ZM92.5051 93.9842V88.277H98.2377V93.9842H92.5051ZM99.6291 93.9842V88.277H105.362V93.9842H99.6291ZM78.2572 86.8918V81.1847H83.9898V86.8918H78.2572ZM106.753 86.8918V81.1847H112.486V86.8918H106.753ZM78.2572 79.7995V74.0923H83.9898V79.7995H78.2572ZM106.753 79.7995V74.0923H112.486V79.7995H106.753ZM78.2572 72.7071V67H83.9898V72.7071H78.2572ZM85.3812 72.7071V67H91.1137V72.7071H85.3812ZM92.5051 72.7071V67H98.2377V72.7071H92.5051ZM99.6291 72.7071V67H105.362V72.7071H99.6291Z" fill="white"/>
<path d="M128.514 115.261V109.554H134.247V115.261H128.514ZM157.01 115.261V109.554H162.743V115.261H157.01ZM128.514 108.169V102.462H134.247V108.169H128.514ZM157.01 108.169V102.462H162.743V108.169H157.01ZM128.514 101.077V95.3694H134.247V101.077H128.514ZM149.886 101.077V95.3694H155.619V101.077H149.886ZM128.514 93.9842V88.277H134.247V93.9842H128.514ZM135.638 93.9842V88.277H141.371V93.9842H135.638ZM142.762 93.9842V88.277H148.495V93.9842H142.762ZM128.514 86.8918V81.1847H134.247V86.8918H128.514ZM142.762 86.8918V81.1847H148.495V86.8918H142.762ZM128.514 79.7995V74.0923H134.247V79.7995H128.514ZM149.886 79.7995V74.0923H155.619V79.7995H149.886ZM128.514 72.7071V67H134.247V72.7071H128.514ZM157.01 72.7071V67H162.743V72.7071H157.01Z" fill="white"/>
<path d="M178.772 115.261V109.554H184.504V115.261H178.772ZM207.267 115.261V109.554H213V115.261H207.267ZM178.772 108.169V102.462H184.504V108.169H178.772ZM207.267 108.169V102.462H213V108.169H207.267ZM178.772 101.077V95.3694H184.504V101.077H178.772ZM207.267 101.077V95.3694H213V101.077H207.267ZM178.772 93.9842V88.277H184.504V93.9842H178.772ZM185.896 93.9842V88.277H191.628V93.9842H185.896ZM193.02 93.9842V88.277H198.752V93.9842H193.02ZM200.144 93.9842V88.277H205.876V93.9842H200.144ZM207.267 93.9842V88.277H213V93.9842H207.267ZM178.772 86.8918V81.1847H184.504V86.8918H178.772ZM207.267 86.8918V81.1847H213V86.8918H207.267ZM185.896 79.7995V74.0923H191.628V79.7995H185.896ZM200.144 79.7995V74.0923H205.876V79.7995H200.144ZM193.02 72.7071V67H198.752V72.7071H193.02Z" fill="white"/>
<path d="M28 172V166.293H33.7326V172H28ZM35.1239 172V166.293H40.8565V172H35.1239ZM42.2479 172V166.293H47.9804V172H42.2479ZM28 164.908V159.201H33.7326V164.908H28ZM49.3718 164.908V159.201H55.1044V164.908H49.3718ZM28 157.815V152.108H33.7326V157.815H28ZM56.4958 157.815V152.108H62.2283V157.815H56.4958ZM28 150.723V145.016H33.7326V150.723H28ZM56.4958 150.723V145.016H62.2283V150.723H56.4958ZM28 143.631V137.923H33.7326V143.631H28ZM56.4958 143.631V137.923H62.2283V143.631H56.4958ZM28 136.538V130.831H33.7326V136.538H28ZM49.3718 136.538V130.831H55.1044V136.538H49.3718ZM28 129.446V123.739H33.7326V129.446H28ZM35.1239 129.446V123.739H40.8565V129.446H35.1239ZM42.2479 129.446V123.739H47.9804V129.446H42.2479Z" fill="white"/>
<path d="M85.3812 172V166.293H91.1137V172H85.3812ZM92.5051 172V166.293H98.2377V172H92.5051ZM99.6291 172V166.293H105.362V172H99.6291ZM92.5051 164.908V159.201H98.2377V164.908H92.5051ZM92.5051 157.815V152.108H98.2377V157.815H92.5051ZM92.5051 150.723V145.016H98.2377V150.723H92.5051ZM92.5051 143.631V137.923H98.2377V143.631H92.5051ZM92.5051 136.538V130.831H98.2377V136.538H92.5051ZM85.3812 129.446V123.739H91.1137V129.446H85.3812ZM92.5051 129.446V123.739H98.2377V129.446H92.5051ZM99.6291 129.446V123.739H105.362V129.446H99.6291Z" fill="white"/>
<path d="M142.762 172V166.293H148.495V172H142.762ZM142.762 164.908V159.201H148.495V164.908H142.762ZM142.762 157.815V152.108H148.495V157.815H142.762ZM142.762 150.723V145.016H148.495V150.723H142.762ZM135.638 143.631V137.923H141.371V143.631H135.638ZM149.886 143.631V137.923H155.619V143.631H149.886ZM128.514 136.538V130.831H134.247V136.538H128.514ZM157.01 136.538V130.831H162.743V136.538H157.01ZM128.514 129.446V123.739H134.247V129.446H128.514ZM157.01 129.446V123.739H162.743V129.446H157.01Z" fill="white"/>
<path d="M78.2572 166.293V172H83.9898V166.293H78.2572Z" fill="white"/>
<path d="M78.2572 123.739V129.446H83.9898V123.739H78.2572Z" fill="white"/>
<path d="M106.753 166.293V172H112.486V166.293H106.753Z" fill="white"/>
<path d="M106.753 123.739V129.446H112.486V123.739H106.753Z" fill="white"/>
</svg>
